# xmcd
#
# Track frame offsets: 
#        150
#        16012
#        33705
#
# Disc length: 722 seconds
#
# Revision: 8
# Processed by: cddbd v1.5.2PL0 Copyright (c) Steve Scherf et al.
# Submitted via: ExactAudioCopy v0.99pb4
#
DISCID=1902d003
DTITLE=Wonderwall - In April (You Call My Name)
DYEAR=2002
DGENRE=Pop
TTITLE0=In April (You Call My Name) (Single Edit)
TTITLE1=In April (You Call My Name) (Pop Mix)
TTITLE2=In April (You Call My Name) (Jin Jin Reggae Mix)
EXTD=
EXTT0=
EXTT1=
EXTT2=
PLAYORDER=
